<svg width="128" height="128" viewBox="0 0 128 128" fill="none" xmlns="http://www.w3.org/2000/svg">
<g clip-path="url(#clip0_197_54)">
<path d="M114.313 55.254C114.261 55.254 114.211 55.2693 114.168 55.298L111.822 56.668C111.778 56.6954 111.741 56.7337 111.717 56.7793C111.692 56.8249 111.679 56.8761 111.68 56.928V59.668C111.68 59.784 111.735 59.872 111.822 59.93L114.168 61.298C114.211 61.3266 114.261 61.3418 114.313 61.3418C114.365 61.3418 114.415 61.3266 114.458 61.298L116.8 59.93C116.845 59.9022 116.881 59.8634 116.907 59.8174C116.932 59.7714 116.945 59.7196 116.945 59.667V56.93C116.945 56.8779 116.932 56.8265 116.907 56.781C116.881 56.7354 116.844 56.6972 116.8 56.67L114.457 55.299C114.414 55.2705 114.364 55.2542 114.313 55.254ZM63.2199 71.638C62.7929 71.638 62.3679 71.742 62.0059 71.946L50.4569 78.673C50.0867 78.8902 49.7798 79.2005 49.5668 79.5732C49.3538 79.9458 49.2421 80.3678 49.2429 80.797V94.22C49.2429 95.094 49.7049 95.91 50.4569 96.348L53.4969 98.094C54.9729 98.822 55.4939 98.82 56.1589 98.82C58.3289 98.82 59.5739 97.481 59.5739 95.18V81.935C59.5727 81.8428 59.5357 81.7548 59.4708 81.6893C59.4059 81.6238 59.3181 81.5861 59.2259 81.584H57.7519C57.6594 81.5856 57.5711 81.6231 57.5058 81.6886C57.4405 81.7541 57.4032 81.8425 57.4019 81.935V95.183C57.4019 96.202 56.3329 97.223 54.6259 96.35L51.4709 94.515C51.3549 94.457 51.2959 94.309 51.2959 94.193V80.767C51.2959 80.651 51.3549 80.507 51.4709 80.448L63.0159 73.751C63.1029 73.693 63.2489 73.693 63.3649 73.751L74.9129 80.448C75.0279 80.507 75.0849 80.622 75.0849 80.768V94.192C75.0849 94.337 75.0279 94.456 74.9129 94.514L63.3649 101.241C63.2779 101.299 63.1319 101.299 63.0159 101.241L60.0649 99.462C59.9779 99.404 59.8619 99.375 59.7749 99.433C58.9649 99.899 58.8229 99.96 58.0409 100.222C57.8669 100.28 57.5779 100.395 58.1559 100.715L62.0059 103.017C62.3819 103.22 62.7859 103.336 63.2199 103.336C63.6539 103.336 64.0869 103.221 64.4339 103.076L75.9829 96.349C76.3534 96.1311 76.6603 95.82 76.8733 95.4467C77.0862 95.0734 77.1978 94.6508 77.1969 94.221V80.797C77.1969 79.923 76.7349 79.11 75.9829 78.673L64.4339 71.946C64.0621 71.7415 63.6442 71.6355 63.2199 71.638ZM81.2499 77.768C80.6572 77.7704 80.0898 78.008 79.6722 78.4286C79.2546 78.8492 79.0211 79.4183 79.0229 80.011C79.0213 80.6035 79.255 81.1725 79.6725 81.5928C80.0901 82.0132 80.6574 82.2506 81.2499 82.253C82.4669 82.253 83.4779 81.234 83.4779 80.011C83.4748 79.4198 83.2395 78.8534 82.8228 78.4341C82.406 78.0147 81.8411 77.7748 81.2499 77.768ZM81.2199 78.147C81.4664 78.144 81.7111 78.19 81.9397 78.2823C82.1683 78.3747 82.3762 78.5116 82.5515 78.685C82.7267 78.8585 82.8657 79.065 82.9603 79.2927C83.055 79.5203 83.1035 79.7645 83.1029 80.011C83.1029 81.031 82.2629 81.905 81.2209 81.905C80.2089 81.905 79.3689 81.059 79.3689 80.011C79.3689 78.963 80.2369 78.147 81.2199 78.147ZM80.4109 78.758V81.32H80.9049V80.304H81.3389C81.5129 80.304 81.5699 80.362 81.5989 80.507C81.5989 80.537 81.6849 81.177 81.6849 81.293H82.2049C82.1469 81.177 82.1179 80.827 82.0889 80.623C82.0609 80.303 82.0329 80.07 81.6849 80.041C81.8589 79.982 82.1479 79.895 82.1479 79.429C82.1479 78.759 81.5679 78.759 81.2799 78.759L80.4109 78.758ZM80.8459 79.166H81.2499C81.3959 79.166 81.6259 79.166 81.6259 79.515C81.6259 79.631 81.5699 79.866 81.2499 79.866H80.8449L80.8459 79.166ZM66.3759 81.176C63.0759 81.176 61.1079 82.574 61.1079 84.933C61.1079 87.467 63.0759 88.163 66.2309 88.484C70.0209 88.863 70.3109 89.417 70.3109 90.174C70.3109 91.484 69.2669 92.038 66.8359 92.038C63.7679 92.038 63.1029 91.28 62.8709 89.737C62.8709 89.562 62.7289 89.447 62.5549 89.447H61.0499C60.958 89.4481 60.8701 89.4853 60.8054 89.5506C60.7406 89.6159 60.7042 89.7041 60.7039 89.796C60.7039 91.776 61.7449 94.106 66.8109 94.106C70.4559 94.106 72.5689 92.648 72.5689 90.086C72.5689 87.581 70.8889 86.912 67.3309 86.446C63.7409 85.98 63.3659 85.718 63.3659 84.874C63.3659 84.175 63.6839 83.244 66.3459 83.244C68.7189 83.244 69.6149 83.769 69.9629 85.37C69.9804 85.4423 70.021 85.5068 70.0786 85.5538C70.1362 85.6007 70.2076 85.6275 70.2819 85.63H71.8149C71.9029 85.63 71.9899 85.573 72.0489 85.515C72.1026 85.4377 72.1322 85.3462 72.1339 85.252C71.9029 82.457 70.0809 81.176 66.3759 81.176Z" fill="#D2B071"/>
<path d="M86.072 24.664C85.949 24.6626 85.8277 24.6933 85.72 24.753C85.608 24.8182 85.5147 24.9111 85.449 25.0229C85.3833 25.1346 85.3475 25.2614 85.345 25.391V44.32C85.345 44.494 85.255 44.67 85.082 44.786C85.0021 44.829 84.9128 44.8515 84.822 44.8515C84.7313 44.8515 84.642 44.829 84.562 44.786L81.496 43.011C81.2711 42.882 81.0163 42.8142 80.757 42.8142C80.4978 42.8142 80.243 42.882 80.018 43.011L67.75 50.146C67.523 50.274 67.3339 50.4597 67.2016 50.6843C67.0694 50.9089 66.9988 51.1644 66.997 51.425V65.665C66.997 66.189 67.287 66.685 67.75 66.947L80.02 74.082C80.2449 74.2107 80.4995 74.2785 80.7585 74.2785C81.0176 74.2785 81.2722 74.2107 81.497 74.082L93.766 66.947C94.229 66.685 94.519 66.189 94.519 65.665V30.168C94.519 29.615 94.229 29.118 93.766 28.857L86.446 24.753C86.3303 24.6948 86.2016 24.6643 86.072 24.664ZM13.687 42.43C13.456 42.43 13.225 42.514 13.023 42.63L0.753043 49.739C0.522648 49.8705 0.33144 50.0609 0.199094 50.2908C0.0667472 50.5207 -0.00195962 50.7817 4.25392e-05 51.047L0.0300425 70.149C0.0300425 70.412 0.173043 70.674 0.405043 70.791C0.512407 70.862 0.638302 70.8999 0.767043 70.8999C0.895783 70.8999 1.02168 70.862 1.12904 70.791L8.42304 66.598C8.88604 66.336 9.17304 65.84 9.17304 65.316V56.376C9.17304 55.852 9.46304 55.356 9.92704 55.094L13.023 53.289C13.254 53.143 13.516 53.085 13.776 53.085C14.036 53.085 14.297 53.143 14.5 53.289L17.596 55.094C18.059 55.356 18.349 55.852 18.349 56.376V65.316C18.349 65.84 18.637 66.336 19.099 66.598L26.335 70.791C26.4477 70.8623 26.5782 70.9001 26.7115 70.9001C26.8448 70.9001 26.9754 70.8623 27.088 70.791C27.2029 70.728 27.2986 70.635 27.3648 70.522C27.431 70.4089 27.4653 70.28 27.464 70.149V51.047C27.464 50.523 27.174 50.027 26.71 49.764L14.47 42.63C14.2642 42.5197 14.0385 42.4513 13.806 42.429L13.687 42.43ZM114.354 42.64C114.101 42.64 113.85 42.706 113.618 42.838L101.346 49.969C100.883 50.231 100.596 50.727 100.596 51.252V65.492C100.596 66.016 100.883 66.512 101.346 66.774L113.53 73.761C113.749 73.8897 113.999 73.9575 114.254 73.9575C114.508 73.9575 114.758 73.8897 114.977 73.761L122.357 69.628C122.472 69.5649 122.567 69.4718 122.633 69.3588C122.699 69.2457 122.733 69.1169 122.732 68.986C122.733 68.8554 122.699 68.727 122.633 68.6143C122.567 68.5016 122.471 68.4089 122.357 68.346L110.03 61.21C109.918 61.1441 109.825 61.0506 109.759 60.9384C109.693 60.8262 109.657 60.699 109.655 60.569V56.113C109.654 55.9823 109.688 55.8537 109.754 55.741C109.82 55.6282 109.915 55.5356 110.03 55.473L113.88 53.259C113.993 53.1878 114.123 53.15 114.257 53.15C114.39 53.15 114.52 53.1878 114.633 53.259L118.479 55.472C118.592 55.5376 118.685 55.631 118.752 55.7432C118.818 55.8554 118.854 55.9827 118.857 56.113V59.608C118.857 59.871 119.001 60.133 119.232 60.249C119.345 60.3205 119.476 60.3584 119.609 60.3584C119.743 60.3584 119.873 60.3205 119.986 60.249L127.277 55.969C127.501 55.8385 127.686 55.6509 127.813 55.4255C127.94 55.2 128.005 54.9448 128.001 54.686V51.221C128.001 50.697 127.711 50.204 127.277 49.941L115.093 42.837C114.868 42.7083 114.614 42.6401 114.355 42.639L114.354 42.64ZM80.757 53.274C80.822 53.274 80.888 53.289 80.947 53.319L85.141 55.765C85.257 55.823 85.316 55.967 85.316 56.084V60.976C85.316 61.122 85.257 61.24 85.141 61.298L80.946 63.744C80.8872 63.7727 80.8225 63.7876 80.757 63.7876C80.6916 63.7876 80.6269 63.7727 80.568 63.744L76.373 61.298C76.257 61.24 76.198 61.093 76.198 60.976V56.084C76.198 55.938 76.258 55.823 76.373 55.764L80.568 53.319C80.627 53.2894 80.6911 53.274 80.757 53.274Z" fill="#D2B071"/>
<path d="M47.9821 42.8931C47.7574 42.7643 47.503 42.6965 47.2441 42.6965C46.9851 42.6965 46.7307 42.7643 46.5061 42.8931L34.3221 49.9701C34.0985 50.1 33.9136 50.2872 33.7863 50.5124C33.6591 50.7375 33.5941 50.9925 33.5981 51.251V65.432C33.5981 65.957 33.8881 66.452 34.3221 66.714L46.5061 73.7901C46.7307 73.9188 46.9851 73.9866 47.2441 73.9866C47.503 73.9866 47.7574 73.9188 47.9821 73.7901L60.1651 66.714C60.6281 66.452 60.8891 65.957 60.8891 65.432V51.251C60.8891 50.727 60.5991 50.2311 60.1651 49.9701L47.9821 42.8931Z" fill="url(#paint0_linear_197_54)"/>
<path d="M60.1939 49.97L47.9529 42.893C47.8328 42.8322 47.7068 42.7836 47.5769 42.748L33.8589 66.364C33.9749 66.51 34.1189 66.626 34.2639 66.714L46.5059 73.79C46.8529 73.994 47.2579 74.052 47.6339 73.935L60.5129 50.232C60.4282 50.1213 60.319 50.0316 60.1939 49.97Z" fill="url(#paint1_linear_197_54)"/>
<path d="M60.194 66.713C60.542 66.509 60.802 66.16 60.918 65.781L47.518 42.718C47.172 42.66 46.795 42.689 46.477 42.893L34.322 49.94L47.432 73.993C47.605 73.964 47.808 73.906 47.982 73.818L60.194 66.713Z" fill="url(#paint2_linear_197_54)"/>
</g>
<defs>
<linearGradient id="paint0_linear_197_54" x1="52.2055" y1="48.1628" x2="41.0786" y2="70.7206" gradientUnits="userSpaceOnUse">
<stop stop-color="#D2B071"/>
<stop offset="0.33" stop-color="#D2B071"/>
<stop offset="0.637" stop-color="#D2B071"/>
<stop offset="0.934" stop-color="#D2B071"/>
<stop offset="1" stop-color="#D2B071"/>
</linearGradient>
<linearGradient id="paint1_linear_197_54" x1="45.3924" y1="59.9976" x2="76.4376" y2="37.2007" gradientUnits="userSpaceOnUse">
<stop offset="0.138" stop-color="#D2B071"/>
<stop offset="0.402" stop-color="#D2B071"/>
<stop offset="0.713" stop-color="#D2B071"/>
<stop offset="0.908" stop-color="#D2B071"/>
</linearGradient>
<linearGradient id="paint2_linear_197_54" x1="33.1523" y1="58.3367" x2="61.3447" y2="58.3367" gradientUnits="userSpaceOnUse">
<stop offset="0.092" stop-color="#D2B071"/>
<stop offset="0.287" stop-color="#D2B071"/>
<stop offset="0.598" stop-color="#D2B071"/>
<stop offset="0.862" stop-color="#D2B071"/>
</linearGradient>
<clipPath id="clip0_197_54">
<rect width="128" height="128" fill="white"/>
</clipPath>
</defs>
</svg>
