<svg width="128" height="128" viewBox="0 0 128 128" fill="none" xmlns="http://www.w3.org/2000/svg">
<g clip-path="url(#clip0_197_52)">
<path d="M117.688 98.242C110.715 98.051 105.391 98.703 100.836 100.621C99.5429 101.168 97.4809 101.18 97.2699 102.801C97.9809 103.547 98.0899 104.66 98.6569 105.578C99.7429 107.332 101.579 109.691 103.216 110.93C105.005 112.278 106.849 113.723 108.767 114.891C112.181 116.973 115.99 118.161 119.271 120.243C121.209 121.473 123.13 123.02 125.021 124.407C125.955 125.091 126.584 126.157 127.794 126.587V126.392C127.157 125.58 126.993 124.462 126.407 123.615L123.829 121.037C121.309 117.693 118.11 114.756 114.712 112.318C112.001 110.369 105.931 107.74 104.802 104.588L104.603 104.389C106.525 104.17 108.775 103.475 110.552 102.998C113.532 102.201 116.197 102.408 119.271 101.611L123.435 100.424V99.631C121.88 98.037 120.771 95.924 119.076 94.479C114.635 90.698 109.791 86.924 104.803 83.776C102.037 82.03 98.6189 80.893 95.6859 79.413C94.6979 78.917 92.9669 78.655 92.3149 77.827C90.7759 75.866 89.9359 73.378 88.7489 71.089C86.2609 66.296 83.8189 61.066 81.6119 56.023C80.1079 52.586 79.1279 49.195 77.2529 46.113C68.2529 31.316 58.5659 22.383 43.5579 13.605C40.3629 11.738 36.5189 11 32.4559 10.035L25.9129 9.63996C24.5809 9.08496 23.1979 7.45596 21.9479 6.66296C16.9769 3.51996 4.22294 -3.31204 0.538936 5.67196C-1.78506 11.34 4.01594 16.871 6.08994 19.746C7.54694 21.758 9.40994 24.019 10.4489 26.285C11.1369 27.777 11.2539 29.269 11.8399 30.844C13.2779 34.727 14.5349 38.953 16.3989 42.539C17.3399 44.355 18.3789 46.266 19.5709 47.891C20.2979 48.887 21.5509 49.329 21.7509 50.864C20.5239 52.579 20.4539 55.239 19.7669 57.407C16.6689 67.177 17.8409 79.317 22.3449 86.544C23.7279 88.767 26.9859 93.524 31.4619 91.7C35.3799 90.102 34.5049 85.161 35.6259 80.798C35.8799 79.81 35.7239 79.083 36.2199 78.419V78.618L39.7899 85.751C42.4309 90.005 47.1139 94.45 51.0869 97.45C53.1459 99.005 54.7669 101.692 57.4309 102.602V102.403H57.2319C56.7159 101.598 55.9079 101.266 55.2519 100.622C53.7009 99.099 51.9749 97.208 50.6929 95.466C47.0799 90.564 43.8879 85.196 40.9819 79.611C39.5909 76.943 38.3839 74.002 37.2119 71.287C36.7589 70.24 36.7669 68.654 35.8249 68.115C34.5439 70.103 32.6529 71.713 31.6609 74.06C30.0789 77.814 29.8719 82.396 29.2859 87.142C28.9379 87.267 29.0909 87.181 28.8879 87.341C26.1259 86.673 25.1579 83.833 24.1299 81.392C21.5359 75.228 21.0519 65.302 23.3369 58.201C23.9269 56.365 26.5989 50.584 25.5169 48.885C25.0009 47.194 23.2979 46.213 22.3449 44.92C21.1649 43.322 19.9899 41.217 19.1729 39.369C17.0479 34.564 16.0599 29.166 13.8209 24.307C12.7509 21.983 10.9459 19.631 9.46194 17.569C7.81694 15.28 5.97794 13.592 4.70394 10.827C4.25094 9.84296 3.63794 8.26796 4.30594 7.26096C4.52094 6.57696 4.82194 6.29196 5.49694 6.06996C6.64494 5.18296 9.84894 6.36696 11.0439 6.86296C14.2239 8.18296 16.8759 9.44096 19.5709 11.226C20.8599 12.081 22.1689 13.738 23.7309 14.199H25.5159C28.3049 14.84 31.4299 14.394 34.0389 15.187C38.6479 16.589 42.7769 18.769 46.5269 21.136C57.9489 28.351 67.2929 38.616 73.6829 50.87C74.7099 52.843 75.1559 54.722 76.0619 56.815C77.8859 61.034 80.1869 65.374 82.0029 69.503C83.8189 73.616 85.5849 77.773 88.1509 81.198C89.4989 82.999 94.7019 83.964 97.0689 84.964C98.7289 85.663 101.448 86.394 103.018 87.343C106.018 89.152 108.924 91.308 111.741 93.288C113.143 94.28 117.471 96.456 117.686 98.245L117.688 98.242ZM29.0829 22.722C27.6299 22.695 26.6029 22.878 25.5169 23.117V23.316H25.7119C26.4069 24.738 27.6299 25.656 28.4889 26.882L30.4689 31.046L30.6679 30.851C31.8949 29.984 32.4569 28.601 32.4489 26.488C31.9569 25.968 31.8869 25.324 31.4569 24.703C30.8949 23.879 29.7969 23.414 29.0819 22.723L29.0829 22.722Z" fill="#D2B071"/>
</g>
<defs>
<clipPath id="clip0_197_52">
<rect width="128" height="128" fill="white"/>
</clipPath>
</defs>
</svg>
